<?xml version="1.0" encoding="UTF-8" standalone="no"?>
<!DOCTYPE svg PUBLIC "-//W3C//DTD SVG 1.1//EN"
 "http://www.w3.org/Graphics/SVG/1.1/DTD/svg11.dtd">
<!-- Generated by graphviz version 2.49.0 (0)
 -->
<!-- Title: GitRepos Pages: 1 -->
<svg width="600pt" height="560pt"
 viewBox="0.00 0.00 600.08 559.92" xmlns="http://www.w3.org/2000/svg" xmlns:xlink="http://www.w3.org/1999/xlink">
<g id="graph0" class="graph" transform="scale(1 1) rotate(0) translate(4 555.92)">
<title>GitRepos</title>
<!-- ncep -->
<g id="node1" class="node">
<title>ncep</title>
<ellipse fill="cornflowerblue" stroke="black" cx="378.24" cy="-114.5" rx="54" ry="54"/>
<text text-anchor="middle" x="378.24" y="-110.8" font-family="Helvetica,sans-Serif" font-size="14.00">NOAA&#45;NCEP</text>
</g>
<!-- nasa -->
<g id="node6" class="node">
<title>nasa</title>
<ellipse fill="white" stroke="black" cx="206.35" cy="-114.5" rx="54" ry="54"/>
<text text-anchor="middle" x="206.35" y="-110.8" font-family="Helvetica,sans-Serif" font-size="14.00">NASA/GMAO</text>
</g>
<!-- ncep&#45;&gt;nasa -->
<g id="edge6" class="edge">
<title>ncep&#45;&gt;nasa</title>
<path fill="none" stroke="white" d="M313.69,-114.5C299.56,-114.5 284.6,-114.5 270.49,-114.5"/>
<polygon fill="white" stroke="white" points="313.85,-118 323.85,-114.5 313.85,-111 313.85,-118"/>
<polygon fill="white" stroke="white" points="270.38,-111 260.38,-114.5 270.38,-118 270.38,-111"/>
</g>
<!-- ncar -->
<g id="node2" class="node">
<title>ncar</title>
<ellipse fill="mediumaquamarine" stroke="black" cx="120.41" cy="-263.36" rx="54" ry="54"/>
<text text-anchor="middle" x="120.41" y="-259.66" font-family="Helvetica,sans-Serif" font-size="14.00">NCAR</text>
</g>
<!-- gfdl -->
<g id="node3" class="node">
<title>gfdl</title>
<ellipse fill="deepskyblue" stroke="black" cx="206.35" cy="-412.22" rx="54" ry="54"/>
<text text-anchor="middle" x="206.35" y="-408.52" font-family="Helvetica,sans-Serif" font-size="14.00">NOAA&#45;GFDL</text>
</g>
<!-- ncar&#45;&gt;gfdl -->
<g id="edge2" class="edge">
<title>ncar&#45;&gt;gfdl</title>
<path fill="none" stroke="white" d="M152.68,-319.27C159.75,-331.51 167.23,-344.46 174.28,-356.68"/>
<polygon fill="white" stroke="white" points="155.63,-317.37 147.6,-310.46 149.57,-320.87 155.63,-317.37"/>
<polygon fill="white" stroke="white" points="171.3,-358.52 179.34,-365.43 177.37,-355.02 171.3,-358.52"/>
</g>
<!-- esmg -->
<g id="node4" class="node">
<title>esmg</title>
<ellipse fill="salmon" stroke="black" cx="378.24" cy="-412.22" rx="54" ry="54"/>
<text text-anchor="middle" x="378.24" y="-416.02" font-family="Helvetica,sans-Serif" font-size="14.00">Rutgers</text>
<text text-anchor="middle" x="378.24" y="-401.02" font-family="Helvetica,sans-Serif" font-size="14.00">ESMG</text>
</g>
<!-- gfdl&#45;&gt;esmg -->
<g id="edge3" class="edge">
<title>gfdl&#45;&gt;esmg</title>
<path fill="none" stroke="white" d="M270.91,-412.22C285.04,-412.22 299.99,-412.22 314.1,-412.22"/>
<polygon fill="white" stroke="white" points="270.74,-408.72 260.74,-412.22 270.74,-415.72 270.74,-408.72"/>
<polygon fill="white" stroke="white" points="314.21,-415.72 324.21,-412.22 314.21,-408.72 314.21,-415.72"/>
</g>
<!-- fsu -->
<g id="node5" class="node">
<title>fsu</title>
<ellipse fill="orange" stroke="black" cx="464.18" cy="-263.36" rx="54" ry="54"/>
<text text-anchor="middle" x="464.18" y="-259.66" font-family="Helvetica,sans-Serif" font-size="14.00">FSU/Navy</text>
</g>
<!-- esmg&#45;&gt;fsu -->
<g id="edge4" class="edge">
<title>esmg&#45;&gt;fsu</title>
<path fill="none" stroke="white" d="M410.52,-356.32C417.58,-344.08 425.06,-331.13 432.11,-318.91"/>
<polygon fill="white" stroke="white" points="407.4,-354.71 405.43,-365.12 413.46,-358.21 407.4,-354.71"/>
<polygon fill="white" stroke="white" points="435.2,-320.57 437.17,-310.16 429.14,-317.07 435.2,-320.57"/>
</g>
<!-- fsu&#45;&gt;ncep -->
<g id="edge5" class="edge">
<title>fsu&#45;&gt;ncep</title>
<path fill="none" stroke="white" d="M431.91,-207.46C424.84,-195.22 417.36,-182.27 410.31,-170.05"/>
<polygon fill="white" stroke="white" points="428.96,-209.35 436.99,-216.26 435.02,-205.85 428.96,-209.35"/>
<polygon fill="white" stroke="white" points="413.29,-168.21 405.26,-161.3 407.22,-171.71 413.29,-168.21"/>
</g>
<!-- nasa&#45;&gt;ncar -->
<g id="edge1" class="edge">
<title>nasa&#45;&gt;ncar</title>
<path fill="none" stroke="white" d="M174.07,-170.41C167.01,-182.65 159.53,-195.6 152.48,-207.82"/>
<polygon fill="white" stroke="white" points="177.19,-172.01 179.16,-161.6 171.13,-168.51 177.19,-172.01"/>
<polygon fill="white" stroke="white" points="149.39,-206.16 147.42,-216.57 155.46,-209.66 149.39,-206.16"/>
</g>
<!-- u_ncep -->
<g id="node7" class="node">
<title>u_ncep</title>
<ellipse fill="cornflowerblue" stroke="black" cx="428.21" cy="-27.95" rx="27.9" ry="27.9"/>
<text text-anchor="middle" x="428.21" y="-24.25" font-family="Helvetica,sans-Serif" font-size="14.00">user</text>
</g>
<!-- u_ncep&#45;&gt;ncep -->
<g id="edge7" class="edge">
<title>u_ncep&#45;&gt;ncep</title>
<path fill="none" stroke="white" d="M414.03,-52.52C412.92,-54.43 411.79,-56.4 410.63,-58.41"/>
<polygon fill="white" stroke="white" points="407.4,-57 405.43,-67.41 413.46,-60.5 407.4,-57"/>
</g>
<!-- u1_ncar -->
<g id="node8" class="node">
<title>u1_ncar</title>
<ellipse fill="mediumaquamarine" stroke="black" cx="27.95" cy="-326.72" rx="27.9" ry="27.9"/>
<text text-anchor="middle" x="27.95" y="-323.02" font-family="Helvetica,sans-Serif" font-size="14.00">user</text>
</g>
<!-- u1_ncar&#45;&gt;ncar -->
<g id="edge8" class="edge">
<title>u1_ncar&#45;&gt;ncar</title>
<path fill="none" stroke="white" d="M51.28,-310.73C56.31,-307.29 61.83,-303.51 67.48,-299.63"/>
<polygon fill="white" stroke="white" points="69.55,-302.46 75.82,-293.92 65.59,-296.68 69.55,-302.46"/>
</g>
<!-- u2_ncar -->
<g id="node9" class="node">
<title>u2_ncar</title>
<ellipse fill="mediumaquamarine" stroke="black" cx="27.95" cy="-200" rx="27.9" ry="27.9"/>
<text text-anchor="middle" x="27.95" y="-196.3" font-family="Helvetica,sans-Serif" font-size="14.00">user</text>
</g>
<!-- u2_ncar&#45;&gt;ncar -->
<g id="edge9" class="edge">
<title>u2_ncar&#45;&gt;ncar</title>
<path fill="none" stroke="white" d="M51.28,-215.99C56.31,-219.44 61.83,-223.22 67.48,-227.09"/>
<polygon fill="white" stroke="white" points="65.59,-230.04 75.82,-232.81 69.55,-224.27 65.59,-230.04"/>
</g>
<!-- u1_gfdl -->
<g id="node10" class="node">
<title>u1_gfdl</title>
<ellipse fill="deepskyblue" stroke="black" cx="214.99" cy="-523.98" rx="27.9" ry="27.9"/>
<text text-anchor="middle" x="214.99" y="-520.28" font-family="Helvetica,sans-Serif" font-size="14.00">user</text>
</g>
<!-- u1_gfdl&#45;&gt;gfdl -->
<g id="edge10" class="edge">
<title>u1_gfdl&#45;&gt;gfdl</title>
<path fill="none" stroke="white" d="M212.83,-496.06C212.36,-489.98 211.85,-483.31 211.32,-476.46"/>
<polygon fill="white" stroke="white" points="214.8,-476.05 210.54,-466.35 207.82,-476.59 214.8,-476.05"/>
</g>
<!-- u2_gfdl -->
<g id="node11" class="node">
<title>u2_gfdl</title>
<ellipse fill="deepskyblue" stroke="black" cx="105.25" cy="-460.62" rx="27.9" ry="27.9"/>
<text text-anchor="middle" x="105.25" y="-456.92" font-family="Helvetica,sans-Serif" font-size="14.00">user</text>
</g>
<!-- u2_gfdl&#45;&gt;gfdl -->
<g id="edge11" class="edge">
<title>u2_gfdl&#45;&gt;gfdl</title>
<path fill="none" stroke="white" d="M130.5,-448.53C136,-445.9 142.04,-443 148.24,-440.04"/>
<polygon fill="white" stroke="white" points="149.87,-443.14 157.38,-435.66 146.85,-436.82 149.87,-443.14"/>
</g>
<!-- u_esmg -->
<g id="node12" class="node">
<title>u_esmg</title>
<ellipse fill="salmon" stroke="black" cx="428.21" cy="-498.78" rx="27.9" ry="27.9"/>
<text text-anchor="middle" x="428.21" y="-495.08" font-family="Helvetica,sans-Serif" font-size="14.00">user</text>
</g>
<!-- u_esmg&#45;&gt;esmg -->
<g id="edge12" class="edge">
<title>u_esmg&#45;&gt;esmg</title>
<path fill="none" stroke="white" d="M414.03,-474.21C412.92,-472.3 411.79,-470.33 410.63,-468.32"/>
<polygon fill="white" stroke="white" points="413.46,-466.22 405.43,-459.31 407.4,-469.72 413.46,-466.22"/>
</g>
<!-- u_fsu -->
<g id="node13" class="node">
<title>u_fsu</title>
<ellipse fill="orange" stroke="black" cx="564.13" cy="-263.36" rx="27.9" ry="27.9"/>
<text text-anchor="middle" x="564.13" y="-259.66" font-family="Helvetica,sans-Serif" font-size="14.00">user</text>
</g>
<!-- u_fsu&#45;&gt;fsu -->
<g id="edge13" class="edge">
<title>u_fsu&#45;&gt;fsu</title>
<path fill="none" stroke="white" d="M536.02,-263.36C533.6,-263.36 531.09,-263.36 528.52,-263.36"/>
<polygon fill="white" stroke="white" points="528.42,-259.86 518.42,-263.36 528.42,-266.86 528.42,-259.86"/>
</g>
</g>
</svg>
