<?xml version="1.0" encoding="UTF-8" standalone="no"?>
<!DOCTYPE svg PUBLIC "-//W3C//DTD SVG 1.1//EN"
 "http://www.w3.org/Graphics/SVG/1.1/DTD/svg11.dtd">
<!-- Generated by graphviz version 2.49.0 (0)
 -->
<!-- Title: testing Pages: 1 -->
<svg width="886pt" height="572pt"
 viewBox="0.00 0.00 886.00 571.74" xmlns="http://www.w3.org/2000/svg" xmlns:xlink="http://www.w3.org/1999/xlink">
<g id="graph0" class="graph" transform="scale(1 1) rotate(0) translate(4 567.74)">
<title>testing</title>
<g id="clust8" class="cluster">
<title>cluster_build</title>
<polygon fill="grey" stroke="black" points="257,-355 257,-430 623,-430 623,-355 257,-355"/>
<text text-anchor="middle" x="589.5" y="-414.8" font-family="Helvetica,sans-Serif" font-size="14.00" fill="white">Compile</text>
</g>
<g id="clust9" class="cluster">
<title>cluster_test</title>
<polygon fill="grey" stroke="black" points="8,-136 8,-283 870,-283 870,-136 8,-136"/>
<text text-anchor="middle" x="833" y="-267.8" font-family="Helvetica,sans-Serif" font-size="14.00" fill="white">Run tests</text>
</g>
<!-- submit -->
<g id="node1" class="node">
<title>submit</title>
<ellipse fill="lightgrey" stroke="black" cx="433" cy="-536.87" rx="82.05" ry="26.74"/>
<text text-anchor="middle" x="433" y="-540.67" font-family="Helvetica,sans-Serif" font-size="14.00">Submit to CI</text>
<text text-anchor="middle" x="433" y="-525.67" font-family="Helvetica,sans-Serif" font-size="14.00">(GitHub Actions)</text>
</g>
<!-- codestyle -->
<g id="node2" class="node">
<title>codestyle</title>
<ellipse fill="lightgrey" stroke="black" cx="433" cy="-456" rx="81.49" ry="18"/>
<text text-anchor="middle" x="433" y="-452.3" font-family="Helvetica,sans-Serif" font-size="14.00">Code Style Check</text>
</g>
<!-- submit&#45;&gt;codestyle -->
<g id="edge1" class="edge">
<title>submit&#45;&gt;codestyle</title>
<path fill="none" stroke="black" d="M433,-509.61C433,-501.51 433,-492.57 433,-484.39"/>
<polygon fill="black" stroke="black" points="436.5,-484.22 433,-474.22 429.5,-484.22 436.5,-484.22"/>
</g>
<!-- build1 -->
<g id="node3" class="node">
<title>build1</title>
<ellipse fill="lightgrey" stroke="black" cx="562" cy="-381" rx="53.09" ry="18"/>
<text text-anchor="middle" x="562" y="-377.3" font-family="Helvetica,sans-Serif" font-size="14.00">Symmetric</text>
</g>
<!-- codestyle&#45;&gt;build1 -->
<g id="edge2" class="edge">
<title>codestyle&#45;&gt;build1</title>
<path fill="none" stroke="black" d="M477.11,-440.71C484.92,-437.58 492.84,-433.99 500,-430 512.8,-422.88 525.79,-413.26 536.55,-404.51"/>
<polygon fill="black" stroke="black" points="538.87,-407.14 544.3,-398.04 534.38,-401.76 538.87,-407.14"/>
</g>
<!-- build2 -->
<g id="node4" class="node">
<title>build2</title>
<ellipse fill="lightgrey" stroke="black" cx="433" cy="-381" rx="57.69" ry="18"/>
<text text-anchor="middle" x="433" y="-377.3" font-family="Helvetica,sans-Serif" font-size="14.00">Asymmetric</text>
</g>
<!-- codestyle&#45;&gt;build2 -->
<g id="edge3" class="edge">
<title>codestyle&#45;&gt;build2</title>
<path fill="none" stroke="black" d="M433,-437.7C433,-429.25 433,-418.87 433,-409.37"/>
<polygon fill="black" stroke="black" points="436.5,-409.18 433,-399.18 429.5,-409.18 436.5,-409.18"/>
</g>
<!-- build3 -->
<g id="node5" class="node">
<title>build3</title>
<ellipse fill="lightgrey" stroke="black" cx="311" cy="-381" rx="46.29" ry="18"/>
<text text-anchor="middle" x="311" y="-377.3" font-family="Helvetica,sans-Serif" font-size="14.00">OpenMP</text>
</g>
<!-- codestyle&#45;&gt;build3 -->
<g id="edge4" class="edge">
<title>codestyle&#45;&gt;build3</title>
<path fill="none" stroke="black" d="M388.34,-440.91C380.66,-437.78 372.93,-434.13 366,-430 354.6,-423.21 343.33,-413.95 333.98,-405.37"/>
<polygon fill="black" stroke="black" points="336.29,-402.73 326.63,-398.39 331.48,-407.81 336.29,-402.73"/>
</g>
<!-- build_verify -->
<g id="node6" class="node">
<title>build_verify</title>
<polygon fill="lightgrey" stroke="black" points="478,-327 388,-327 388,-291 478,-291 478,-327"/>
<text text-anchor="middle" x="433" y="-305.3" font-family="Helvetica,sans-Serif" font-size="14.00">Verify builds</text>
</g>
<!-- build1&#45;&gt;build_verify -->
<g id="edge5" class="edge">
<title>build1&#45;&gt;build_verify</title>
<path fill="none" stroke="black" d="M534.96,-365.33C517.15,-355.66 493.5,-342.83 473.47,-331.96"/>
<polygon fill="black" stroke="black" points="475.01,-328.82 464.55,-327.12 471.67,-334.97 475.01,-328.82"/>
</g>
<!-- build2&#45;&gt;build_verify -->
<g id="edge6" class="edge">
<title>build2&#45;&gt;build_verify</title>
<path fill="none" stroke="black" d="M433,-362.7C433,-354.98 433,-345.71 433,-337.11"/>
<polygon fill="black" stroke="black" points="436.5,-337.1 433,-327.1 429.5,-337.1 436.5,-337.1"/>
</g>
<!-- build3&#45;&gt;build_verify -->
<g id="edge7" class="edge">
<title>build3&#45;&gt;build_verify</title>
<path fill="none" stroke="black" d="M335.98,-365.67C352.83,-356 375.4,-343.05 394.52,-332.08"/>
<polygon fill="black" stroke="black" points="396.38,-335.04 403.32,-327.03 392.9,-328.97 396.38,-335.04"/>
</g>
<!-- test1 -->
<g id="node7" class="node">
<title>test1</title>
<ellipse fill="lightgrey" stroke="black" cx="727" cy="-234" rx="63.09" ry="18"/>
<text text-anchor="middle" x="727" y="-230.3" font-family="Helvetica,sans-Serif" font-size="14.00">Grid Memory</text>
</g>
<!-- build_verify&#45;&gt;test1 -->
<g id="edge8" class="edge">
<title>build_verify&#45;&gt;test1</title>
<path fill="none" stroke="black" d="M478.09,-301.81C506.64,-297.48 544.23,-291.05 577,-283 611.95,-274.42 650.61,-261.97 679.93,-251.9"/>
<polygon fill="black" stroke="black" points="681.19,-255.17 689.5,-248.59 678.9,-248.56 681.19,-255.17"/>
</g>
<!-- test2 -->
<g id="node8" class="node">
<title>test2</title>
<ellipse fill="lightgrey" stroke="black" cx="511" cy="-234" rx="57.39" ry="18"/>
<text text-anchor="middle" x="511" y="-230.3" font-family="Helvetica,sans-Serif" font-size="14.00">Dimensions</text>
</g>
<!-- build_verify&#45;&gt;test2 -->
<g id="edge9" class="edge">
<title>build_verify&#45;&gt;test2</title>
<path fill="none" stroke="black" d="M451.48,-290.7C461.88,-280.97 474.99,-268.7 486.26,-258.15"/>
<polygon fill="black" stroke="black" points="488.81,-260.56 493.72,-251.18 484.02,-255.45 488.81,-260.56"/>
</g>
<!-- test3 -->
<g id="node9" class="node">
<title>test3</title>
<ellipse fill="lightgrey" stroke="black" cx="361" cy="-234" rx="43.59" ry="18"/>
<text text-anchor="middle" x="361" y="-230.3" font-family="Helvetica,sans-Serif" font-size="14.00">Rotation</text>
</g>
<!-- build_verify&#45;&gt;test3 -->
<g id="edge10" class="edge">
<title>build_verify&#45;&gt;test3</title>
<path fill="none" stroke="black" d="M415.94,-290.7C406.43,-281.06 394.47,-268.93 384.13,-258.45"/>
<polygon fill="black" stroke="black" points="386.47,-255.84 376.95,-251.18 381.48,-260.75 386.47,-255.84"/>
</g>
<!-- test4 -->
<g id="node10" class="node">
<title>test4</title>
<ellipse fill="lightgrey" stroke="black" cx="151" cy="-234" rx="56.59" ry="18"/>
<text text-anchor="middle" x="151" y="-230.3" font-family="Helvetica,sans-Serif" font-size="14.00">Initialization</text>
</g>
<!-- build_verify&#45;&gt;test4 -->
<g id="edge11" class="edge">
<title>build_verify&#45;&gt;test4</title>
<path fill="none" stroke="black" d="M387.92,-300.1C364.04,-295.64 334.29,-289.63 308,-283 270.72,-273.6 229.13,-260.78 198.13,-250.75"/>
<polygon fill="black" stroke="black" points="199.05,-247.37 188.46,-247.6 196.88,-254.02 199.05,-247.37"/>
</g>
<!-- t1_1 -->
<g id="node11" class="node">
<title>t1_1</title>
<ellipse fill="lightgrey" stroke="black" cx="691" cy="-162" rx="27" ry="18"/>
<text text-anchor="middle" x="691" y="-158.3" font-family="Helvetica,sans-Serif" font-size="14.00">tc1</text>
</g>
<!-- test1&#45;&gt;t1_1 -->
<g id="edge12" class="edge">
<title>test1&#45;&gt;t1_1</title>
<path fill="none" stroke="black" d="M718.29,-216.05C714.02,-207.77 708.8,-197.62 704.08,-188.42"/>
<polygon fill="black" stroke="black" points="707.07,-186.6 699.39,-179.31 700.85,-189.8 707.07,-186.6"/>
</g>
<!-- t2_1 -->
<g id="node12" class="node">
<title>t2_1</title>
<ellipse fill="lightgrey" stroke="black" cx="763" cy="-162" rx="27" ry="18"/>
<text text-anchor="middle" x="763" y="-158.3" font-family="Helvetica,sans-Serif" font-size="14.00">tc2</text>
</g>
<!-- test1&#45;&gt;t2_1 -->
<g id="edge13" class="edge">
<title>test1&#45;&gt;t2_1</title>
<path fill="none" stroke="black" d="M735.71,-216.05C739.98,-207.77 745.2,-197.62 749.92,-188.42"/>
<polygon fill="black" stroke="black" points="753.15,-189.8 754.61,-179.31 746.93,-186.6 753.15,-189.8"/>
</g>
<!-- t3_1 -->
<g id="node13" class="node">
<title>t3_1</title>
<ellipse fill="lightgrey" stroke="black" cx="835" cy="-162" rx="27" ry="18"/>
<text text-anchor="middle" x="835" y="-158.3" font-family="Helvetica,sans-Serif" font-size="14.00">tc3</text>
</g>
<!-- test1&#45;&gt;t3_1 -->
<g id="edge14" class="edge">
<title>test1&#45;&gt;t3_1</title>
<path fill="none" stroke="black" d="M751.24,-217.29C767.97,-206.44 790.25,-192 807.63,-180.74"/>
<polygon fill="black" stroke="black" points="809.73,-183.55 816.21,-175.18 805.92,-177.68 809.73,-183.55"/>
</g>
<!-- t1_2 -->
<g id="node14" class="node">
<title>t1_2</title>
<ellipse fill="lightgrey" stroke="black" cx="475" cy="-162" rx="27" ry="18"/>
<text text-anchor="middle" x="475" y="-158.3" font-family="Helvetica,sans-Serif" font-size="14.00">tc1</text>
</g>
<!-- test2&#45;&gt;t1_2 -->
<g id="edge15" class="edge">
<title>test2&#45;&gt;t1_2</title>
<path fill="none" stroke="black" d="M502.29,-216.05C498.02,-207.77 492.8,-197.62 488.08,-188.42"/>
<polygon fill="black" stroke="black" points="491.07,-186.6 483.39,-179.31 484.85,-189.8 491.07,-186.6"/>
</g>
<!-- t2_2 -->
<g id="node15" class="node">
<title>t2_2</title>
<ellipse fill="lightgrey" stroke="black" cx="547" cy="-162" rx="27" ry="18"/>
<text text-anchor="middle" x="547" y="-158.3" font-family="Helvetica,sans-Serif" font-size="14.00">tc2</text>
</g>
<!-- test2&#45;&gt;t2_2 -->
<g id="edge16" class="edge">
<title>test2&#45;&gt;t2_2</title>
<path fill="none" stroke="black" d="M519.71,-216.05C523.98,-207.77 529.2,-197.62 533.92,-188.42"/>
<polygon fill="black" stroke="black" points="537.15,-189.8 538.61,-179.31 530.93,-186.6 537.15,-189.8"/>
</g>
<!-- t3_2 -->
<g id="node16" class="node">
<title>t3_2</title>
<ellipse fill="lightgrey" stroke="black" cx="619" cy="-162" rx="27" ry="18"/>
<text text-anchor="middle" x="619" y="-158.3" font-family="Helvetica,sans-Serif" font-size="14.00">tc3</text>
</g>
<!-- test2&#45;&gt;t3_2 -->
<g id="edge17" class="edge">
<title>test2&#45;&gt;t3_2</title>
<path fill="none" stroke="black" d="M534.97,-217.46C551.69,-206.63 574.05,-192.14 591.5,-180.83"/>
<polygon fill="black" stroke="black" points="593.63,-183.61 600.12,-175.24 589.82,-177.74 593.63,-183.61"/>
</g>
<!-- t1_3 -->
<g id="node17" class="node">
<title>t1_3</title>
<ellipse fill="lightgrey" stroke="black" cx="259" cy="-162" rx="27" ry="18"/>
<text text-anchor="middle" x="259" y="-158.3" font-family="Helvetica,sans-Serif" font-size="14.00">tc1</text>
</g>
<!-- test3&#45;&gt;t1_3 -->
<g id="edge18" class="edge">
<title>test3&#45;&gt;t1_3</title>
<path fill="none" stroke="black" d="M339.37,-218.15C323.63,-207.36 302.24,-192.67 285.48,-181.17"/>
<polygon fill="black" stroke="black" points="287.42,-178.26 277.19,-175.48 283.46,-184.03 287.42,-178.26"/>
</g>
<!-- t2_3 -->
<g id="node18" class="node">
<title>t2_3</title>
<ellipse fill="lightgrey" stroke="black" cx="331" cy="-162" rx="27" ry="18"/>
<text text-anchor="middle" x="331" y="-158.3" font-family="Helvetica,sans-Serif" font-size="14.00">tc2</text>
</g>
<!-- test3&#45;&gt;t2_3 -->
<g id="edge19" class="edge">
<title>test3&#45;&gt;t2_3</title>
<path fill="none" stroke="black" d="M353.74,-216.05C350.27,-207.97 346.05,-198.12 342.19,-189.11"/>
<polygon fill="black" stroke="black" points="345.35,-187.6 338.2,-179.79 338.92,-190.36 345.35,-187.6"/>
</g>
<!-- t3_3 -->
<g id="node19" class="node">
<title>t3_3</title>
<ellipse fill="lightgrey" stroke="black" cx="403" cy="-162" rx="27" ry="18"/>
<text text-anchor="middle" x="403" y="-158.3" font-family="Helvetica,sans-Serif" font-size="14.00">tc3</text>
</g>
<!-- test3&#45;&gt;t3_3 -->
<g id="edge20" class="edge">
<title>test3&#45;&gt;t3_3</title>
<path fill="none" stroke="black" d="M370.95,-216.41C376.1,-207.83 382.49,-197.19 388.2,-187.67"/>
<polygon fill="black" stroke="black" points="391.26,-189.36 393.41,-178.99 385.26,-185.76 391.26,-189.36"/>
</g>
<!-- t1_4 -->
<g id="node20" class="node">
<title>t1_4</title>
<ellipse fill="lightgrey" stroke="black" cx="43" cy="-162" rx="27" ry="18"/>
<text text-anchor="middle" x="43" y="-158.3" font-family="Helvetica,sans-Serif" font-size="14.00">tc1</text>
</g>
<!-- test4&#45;&gt;t1_4 -->
<g id="edge21" class="edge">
<title>test4&#45;&gt;t1_4</title>
<path fill="none" stroke="black" d="M127.3,-217.64C110.48,-206.74 87.87,-192.09 70.3,-180.7"/>
<polygon fill="black" stroke="black" points="71.93,-177.58 61.63,-175.08 68.12,-183.45 71.93,-177.58"/>
</g>
<!-- t2_4 -->
<g id="node21" class="node">
<title>t2_4</title>
<ellipse fill="lightgrey" stroke="black" cx="115" cy="-162" rx="27" ry="18"/>
<text text-anchor="middle" x="115" y="-158.3" font-family="Helvetica,sans-Serif" font-size="14.00">tc2</text>
</g>
<!-- test4&#45;&gt;t2_4 -->
<g id="edge22" class="edge">
<title>test4&#45;&gt;t2_4</title>
<path fill="none" stroke="black" d="M142.29,-216.05C138.02,-207.77 132.8,-197.62 128.08,-188.42"/>
<polygon fill="black" stroke="black" points="131.07,-186.6 123.39,-179.31 124.85,-189.8 131.07,-186.6"/>
</g>
<!-- t3_4 -->
<g id="node22" class="node">
<title>t3_4</title>
<ellipse fill="lightgrey" stroke="black" cx="187" cy="-162" rx="27" ry="18"/>
<text text-anchor="middle" x="187" y="-158.3" font-family="Helvetica,sans-Serif" font-size="14.00">tc3</text>
</g>
<!-- test4&#45;&gt;t3_4 -->
<g id="edge23" class="edge">
<title>test4&#45;&gt;t3_4</title>
<path fill="none" stroke="black" d="M159.71,-216.05C163.98,-207.77 169.2,-197.62 173.92,-188.42"/>
<polygon fill="black" stroke="black" points="177.15,-189.8 178.61,-179.31 170.93,-186.6 177.15,-189.8"/>
</g>
<!-- verify_results -->
<g id="node23" class="node">
<title>verify_results</title>
<polygon fill="lightgrey" stroke="black" points="486.5,-108 391.5,-108 391.5,-72 486.5,-72 486.5,-108"/>
<text text-anchor="middle" x="439" y="-86.3" font-family="Helvetica,sans-Serif" font-size="14.00">Verify results</text>
</g>
<!-- t1_1&#45;&gt;verify_results -->
<g id="edge24" class="edge">
<title>t1_1&#45;&gt;verify_results</title>
<path fill="none" stroke="black" d="M674.62,-147.55C668.73,-143.3 661.85,-138.95 655,-136 603.91,-114.03 541.29,-102.5 496.66,-96.64"/>
<polygon fill="black" stroke="black" points="496.93,-93.15 486.57,-95.38 496.05,-100.1 496.93,-93.15"/>
</g>
<!-- t2_1&#45;&gt;verify_results -->
<g id="edge25" class="edge">
<title>t2_1&#45;&gt;verify_results</title>
<path fill="none" stroke="black" d="M746.7,-147.35C740.82,-143.09 733.92,-138.77 727,-136 651.22,-105.64 556.59,-95.68 496.95,-92.46"/>
<polygon fill="black" stroke="black" points="496.76,-88.94 486.6,-91.95 496.41,-95.93 496.76,-88.94"/>
</g>
<!-- t3_1&#45;&gt;verify_results -->
<g id="edge26" class="edge">
<title>t3_1&#45;&gt;verify_results</title>
<path fill="none" stroke="black" d="M818.75,-147.23C812.87,-142.96 805.96,-138.67 799,-136 745.11,-115.36 583.91,-101.21 496.65,-94.84"/>
<polygon fill="black" stroke="black" points="496.86,-91.34 486.64,-94.12 496.36,-98.33 496.86,-91.34"/>
</g>
<!-- t1_2&#45;&gt;verify_results -->
<g id="edge27" class="edge">
<title>t1_2&#45;&gt;verify_results</title>
<path fill="none" stroke="black" d="M466.65,-144.76C462.46,-136.61 457.27,-126.53 452.53,-117.31"/>
<polygon fill="black" stroke="black" points="455.49,-115.42 447.81,-108.12 449.27,-118.62 455.49,-115.42"/>
</g>
<!-- t2_2&#45;&gt;verify_results -->
<g id="edge28" class="edge">
<title>t2_2&#45;&gt;verify_results</title>
<path fill="none" stroke="black" d="M529.17,-148.37C523.41,-144.35 516.97,-139.94 511,-136 499.73,-128.57 487.32,-120.71 476.02,-113.66"/>
<polygon fill="black" stroke="black" points="477.58,-110.51 467.24,-108.21 473.89,-116.46 477.58,-110.51"/>
</g>
<!-- t3_2&#45;&gt;verify_results -->
<g id="edge29" class="edge">
<title>t3_2&#45;&gt;verify_results</title>
<path fill="none" stroke="black" d="M602.08,-147.67C596.26,-143.53 589.56,-139.21 583,-136 555.65,-122.62 523.46,-112.12 496.45,-104.63"/>
<polygon fill="black" stroke="black" points="497.32,-101.24 486.75,-102.01 495.49,-108 497.32,-101.24"/>
</g>
<!-- t1_3&#45;&gt;verify_results -->
<g id="edge30" class="edge">
<title>t1_3&#45;&gt;verify_results</title>
<path fill="none" stroke="black" d="M275.92,-147.67C281.74,-143.53 288.44,-139.21 295,-136 322.35,-122.62 354.54,-112.12 381.55,-104.63"/>
<polygon fill="black" stroke="black" points="382.51,-108 391.25,-102.01 380.68,-101.24 382.51,-108"/>
</g>
<!-- t2_3&#45;&gt;verify_results -->
<g id="edge31" class="edge">
<title>t2_3&#45;&gt;verify_results</title>
<path fill="none" stroke="black" d="M348.83,-148.37C354.59,-144.35 361.03,-139.94 367,-136 378.27,-128.57 390.68,-120.71 401.98,-113.66"/>
<polygon fill="black" stroke="black" points="404.11,-116.46 410.76,-108.21 400.42,-110.51 404.11,-116.46"/>
</g>
<!-- t3_3&#45;&gt;verify_results -->
<g id="edge32" class="edge">
<title>t3_3&#45;&gt;verify_results</title>
<path fill="none" stroke="black" d="M411.35,-144.76C415.54,-136.61 420.73,-126.53 425.47,-117.31"/>
<polygon fill="black" stroke="black" points="428.73,-118.62 430.19,-108.12 422.51,-115.42 428.73,-118.62"/>
</g>
<!-- t1_4&#45;&gt;verify_results -->
<g id="edge33" class="edge">
<title>t1_4&#45;&gt;verify_results</title>
<path fill="none" stroke="black" d="M59.25,-147.23C65.13,-142.96 72.04,-138.67 79,-136 132.89,-115.36 294.09,-101.21 381.35,-94.84"/>
<polygon fill="black" stroke="black" points="381.64,-98.33 391.36,-94.12 381.14,-91.34 381.64,-98.33"/>
</g>
<!-- t2_4&#45;&gt;verify_results -->
<g id="edge34" class="edge">
<title>t2_4&#45;&gt;verify_results</title>
<path fill="none" stroke="black" d="M131.3,-147.35C137.18,-143.09 144.08,-138.77 151,-136 226.78,-105.64 321.41,-95.68 381.05,-92.46"/>
<polygon fill="black" stroke="black" points="381.59,-95.93 391.4,-91.95 381.24,-88.94 381.59,-95.93"/>
</g>
<!-- t3_4&#45;&gt;verify_results -->
<g id="edge35" class="edge">
<title>t3_4&#45;&gt;verify_results</title>
<path fill="none" stroke="black" d="M203.38,-147.55C209.27,-143.3 216.15,-138.95 223,-136 274.09,-114.03 336.71,-102.5 381.34,-96.64"/>
<polygon fill="black" stroke="black" points="381.95,-100.1 391.43,-95.38 381.07,-93.15 381.95,-100.1"/>
</g>
<!-- validate -->
<g id="node24" class="node">
<title>validate</title>
<ellipse fill="lightgrey" stroke="black" cx="439" cy="-18" rx="71.49" ry="18"/>
<text text-anchor="middle" x="439" y="-14.3" font-family="Helvetica,sans-Serif" font-size="14.00">Local validation</text>
</g>
<!-- verify_results&#45;&gt;validate -->
<g id="edge36" class="edge">
<title>verify_results&#45;&gt;validate</title>
<path fill="none" stroke="black" d="M439,-71.7C439,-63.98 439,-54.71 439,-46.11"/>
<polygon fill="black" stroke="black" points="442.5,-46.1 439,-36.1 435.5,-46.1 442.5,-46.1"/>
</g>
</g>
</svg>
