<?xml version="1.0" encoding="UTF-8" standalone="no"?>
<!DOCTYPE svg PUBLIC "-//W3C//DTD SVG 1.0//EN" "http://www.w3.org/TR/2001/PR-SVG-20010719/DTD/svg10.dtd">
<svg width="16cm" height="18cm" viewBox="20 35 320 342" xmlns="http://www.w3.org/2000/svg" xmlns:xlink="http://www.w3.org/1999/xlink">
  <g>
    <ellipse style="fill: #ffffff" cx="114.156" cy="58.6326" rx="35.38" ry="21.6818"/>
    <ellipse style="fill: none; fill-opacity:0; stroke-width: 2; stroke: #000000" cx="114.156" cy="58.6326" rx="35.38" ry="21.6818"/>
    <text font-size="12.8" style="fill: #000000;text-anchor:middle;font-family:sans-serif;font-style:normal;font-weight:normal" x="114.156" y="63.5014">
      <tspan x="114.156" y="63.5014">input</tspan>
    </text>
  </g>
  <g>
    <ellipse style="fill: #ffffff" cx="58.2036" cy="206.492" rx="37.1608" ry="30.6804"/>
    <ellipse style="fill: none; fill-opacity:0; stroke-width: 2; stroke: #000000" cx="58.2036" cy="206.492" rx="37.1608" ry="30.6804"/>
    <text font-size="12.8" style="fill: #000000;text-anchor:middle;font-family:sans-serif;font-style:normal;font-weight:normal" x="58.2036" y="211.36">
      <tspan x="58.2036" y="211.36">coupler</tspan>
    </text>
  </g>
  <g>
    <ellipse style="fill: #ffffff" cx="116.833" cy="349.805" rx="35.9737" ry="26.2313"/>
    <ellipse style="fill: none; fill-opacity:0; stroke-width: 2; stroke: #000000" cx="116.833" cy="349.805" rx="35.9737" ry="26.2313"/>
    <text font-size="12.8" style="fill: #000000;text-anchor:middle;font-family:sans-serif;font-style:normal;font-weight:normal" x="116.833" y="354.673">
      <tspan x="116.833" y="354.673">output</tspan>
    </text>
  </g>
  <g>
    <ellipse style="fill: #ffffff" cx="269.692" cy="203.615" rx="68.5855" ry="65.0519"/>
    <ellipse style="fill: none; fill-opacity:0; stroke-width: 2; stroke: #000000" cx="269.692" cy="203.615" rx="68.5855" ry="65.0519"/>
    <text font-size="12.8" style="fill: #000000;text-anchor:middle;font-family:sans-serif;font-style:normal;font-weight:normal" x="269.692" y="208.484">
      <tspan x="269.692" y="208.484">MOM6</tspan>
    </text>
  </g>
  <g>
    <path style="fill: none; fill-opacity:0; stroke-width: 2; stroke: #ffffff" d="M 243.871,132.305 A 163.693,163.693 0 0 0 149.448,64.0639"/>
    <polygon style="fill: #ffffff" points="247.851,138.648 238.532,132.471 244.113,132.146 247.202,127.486 "/>
    <polygon style="fill: none; fill-opacity:0; stroke-width: 2; stroke: #ffffff" points="247.851,138.648 238.532,132.471 244.113,132.146 247.202,127.486 "/>
  </g>
  <g>
    <path style="fill: none; fill-opacity:0; stroke-width: 2; stroke: #ffffff" d="M 162.163,340.865 A 161.953,161.953 0 0 0 249.936,266.937"/>
    <polygon style="fill: #ffffff" points="155.048,343.197 163.293,335.647 162.26,341.141 166.036,345.264 "/>
    <polygon style="fill: none; fill-opacity:0; stroke-width: 2; stroke: #ffffff" points="155.048,343.197 163.293,335.647 162.26,341.141 166.036,345.264 "/>
  </g>
  <g>
    <path style="fill: none; fill-opacity:0; stroke-width: 2; stroke: #ffffff" d="M 208.13,172.82 A 167.198,167.198 0 0 0 96.5958,182.301"/>
    <polygon style="fill: #ffffff" points="89.8412,185.535 96.3633,176.454 96.4787,182.043 101.019,185.304 "/>
    <polygon style="fill: none; fill-opacity:0; stroke-width: 2; stroke: #ffffff" points="89.8412,185.535 96.3633,176.454 96.4787,182.043 101.019,185.304 "/>
  </g>
  <g>
    <path style="fill: none; fill-opacity:0; stroke-width: 2; stroke: #ffffff" d="M 90.0269,223.928 A 183.606,183.606 0 0 0 197.825,235.035"/>
    <polygon style="fill: #ffffff" points="205.143,233.433 196.69,240.75 197.876,235.287 194.217,231.061 "/>
    <polygon style="fill: none; fill-opacity:0; stroke-width: 2; stroke: #ffffff" points="205.143,233.433 196.69,240.75 197.876,235.287 194.217,231.061 "/>
  </g>
  <text font-size="12.8" style="fill: #ffffff;text-anchor:start;font-family:sans-serif;font-style:normal;font-weight:normal" x="199.684" y="72.7988">
    <tspan x="199.684" y="72.7988">Rotate</tspan>
  </text>
  <text font-size="12.8" style="fill: #ffffff;text-anchor:start;font-family:sans-serif;font-style:normal;font-weight:normal" x="117.659" y="159.066">
    <tspan x="117.659" y="159.066">Unrotate</tspan>
  </text>
  <text font-size="12.8" style="fill: #ffffff;text-anchor:start;font-family:sans-serif;font-style:normal;font-weight:normal" x="128.266" y="255.232">
    <tspan x="128.266" y="255.232">Rotate</tspan>
  </text>
  <text font-size="12.8" style="fill: #ffffff;text-anchor:start;font-family:sans-serif;font-style:normal;font-weight:normal" x="209.584" y="342.206">
    <tspan x="209.584" y="342.206">Unrotate</tspan>
  </text>
</svg>
